<svg xmlns="http://www.w3.org/2000/svg" xmlns:xlink="http://www.w3.org/1999/xlink" width="1440" height="820" fill="none" xmlns:v="https://vecta.io/nano"><path fill="#202024" d="M541 142h358v540H541z"/><mask id="A" maskUnits="userSpaceOnUse" x="541" y="140" width="358" height="540" mask-type="alpha"><path fill="#202024" d="M541 140h358v540H541z"/></mask><g mask="url(#A)"><path d="M899 201.492v-458.316L719.5-360 540-256.824v458.316l179.5 103.182L899 201.492z" fill="url(#B)"/><g style="mix-blend-mode:luminosity" opacity=".4"><path d="M541.801 99.35v102.809l89.3 51.41 89.299-51.41V99.35l-89.299-51.41-89.3 51.41z" fill="url(#C)"/><path d="M541.801-3.465v102.81l89.3 51.409L720.4 99.345V-3.465l-89.299-51.41-89.3 51.41z" fill="url(#D)"/><path d="M720.4 202.159V99.349l89.3-51.41 89.3 51.41v102.81l-89.3 51.409-89.3-51.409z" fill="url(#E)"/><path d="M899-3.465v102.81l-89.3 51.409-89.3-51.409V-3.465l89.3-51.41L899-3.465z" fill="url(#F)"/><path d="M809.7 253.59V150.781l-89.3-51.41-89.299 51.41V253.59L720.4 305l89.3-51.41z" fill="url(#G)"/></g></g><defs><linearGradient id="B" x1="540" y1="-344.234" x2="979.976" y2="-283.679" xlink:href="#H"><stop stop-color="#ff008e"/><stop offset="1" stop-color="#ffcd1e"/></linearGradient><linearGradient id="C" x1="631.101" y1="248.84" x2="542.185" y2="97.104" xlink:href="#H"><stop stop-color="#8257e5"/><stop offset="1" stop-color="#ff008e" stop-opacity="0"/></linearGradient><linearGradient id="D" x1="631.101" y1="146.026" x2="542.185" y2="-5.711" xlink:href="#H"><stop stop-color="#8257e5"/><stop offset="1" stop-color="#ff008e" stop-opacity="0"/></linearGradient><linearGradient id="E" x1="899" y1="207.937" x2="720.676" y2="100.328" xlink:href="#H"><stop stop-color="#ff008e" stop-opacity="0"/><stop offset="1" stop-color="#ffcd1e"/></linearGradient><linearGradient id="F" x1="809.7" y1="146.026" x2="898.615" y2="-5.711" xlink:href="#H"><stop stop-color="#8257e5"/><stop offset="1" stop-color="#ff008e" stop-opacity="0"/></linearGradient><linearGradient id="G" x1="720.4" y1="104.099" x2="809.316" y2="255.836" xlink:href="#H"><stop stop-color="#8257e5"/><stop offset="1" stop-color="#ff008e" stop-opacity="0"/></linearGradient><linearGradient id="H" gradientUnits="userSpaceOnUse"/></defs></svg>